<svg xmlns="http://www.w3.org/2000/svg" width="24" height="24"><path style="fill:#fefefe;stroke:none" d="M0 0v24h24V0H0z"/><path style="fill:#ccd0d5;stroke:none" d="m8 1 1 1-1-1z"/><path style="fill:#a4aab4;stroke:none" d="M9.004 1.657C-4.298 5.7 1.615 26.095 14.985 21.992 27.818 18.054 22.05-2.31 9.004 1.657z"/><path style="fill:#ccd0d5;stroke:none" d="m15 1 1 1-1-1M6 2l1 1-1-1m11 0 1 1-1-1M2 6l1 1-1-1z"/><path style="fill:#989ea8;stroke:none" d="m13 6 1 1-1-1z"/><path style="fill:#fefefe;stroke:none" d="m14 6-7 5v2l8 5-1-12z"/><path style="fill:#ccd0d5;stroke:none" d="m21 6 1 1-1-1z"/><path style="fill:#787e88;stroke:none" d="m12 7 1 1-1-1z"/><path style="fill:#ccd0d5;stroke:none" d="m1 8 1 1-1-1z"/><path style="fill:#989ea8;stroke:none" d="m10 8 1 1-1-1z"/><path style="fill:#ccd0d5;stroke:none" d="M22 8v3h1l-1-3z"/><path style="fill:#787e88;stroke:none" d="m9 9 1 1-1-1z"/><path style="fill:#989ea8;stroke:none" d="m7 10 1 1-1-1z"/><path style="fill:#787e88;stroke:none" d="m6.333 11.667.334.666-.334-.666z"/><path style="fill:#989ea8;stroke:none" d="m7 13 1 1-1-1z"/><path style="fill:#ccd0d5;stroke:none" d="M22 13v3h1l-1-3z"/><path style="fill:#787e88;stroke:none" d="m9 14 1 1-1-1z"/><path style="fill:#ccd0d5;stroke:none" d="m1 15 1 1-1-1z"/><path style="fill:#989ea8;stroke:none" d="m10 15 1 1-1-1z"/><path style="fill:#787e88;stroke:none" d="m12 16 1 1-1-1z"/><path style="fill:#ccd0d5;stroke:none" d="m2 17 1 1-1-1z"/><path style="fill:#989ea8;stroke:none" d="m13 17 1 1-1-1z"/><path style="fill:#ccd0d5;stroke:none" d="m21 17 1 1-1-1m-1 1 1 1-1-1m-2 2 1 1-1-1M6 21l1 1-1-1m11 0 1 1-1-1m-8.333 1.333.666.334-.666-.334M13 22v1h3l-3-1z"/></svg>