<?xml version="1.0" standalone="yes"?>
<svg xmlns="http://www.w3.org/2000/svg" width="24" height="24">
<path style="fill:#fefefe; stroke:none;" d="M0 0L0 24L24 24L24 0L0 0z"/>
<path style="fill:#ccd0d5; stroke:none;" d="M8 1L9 2L8 1z"/>
<path style="fill:#a4aab4; stroke:none;" d="M9.00386 1.65664C-4.29781 5.7015 1.61523 26.0954 14.9853 21.9923C27.8181 18.0541 22.0489 -2.31018 9.00386 1.65664z"/>
<path style="fill:#ccd0d5; stroke:none;" d="M15 1L16 2L15 1M6 2L7 3L6 2M17 2L18 3L17 2M2 6L3 7L2 6z"/>
<path style="fill:#989ea8; stroke:none;" d="M13 6L14 7L13 6z"/>
<path style="fill:#fefefe; stroke:none;" d="M14 6L7 11L7 13L15 18L14 6z"/>
<path style="fill:#ccd0d5; stroke:none;" d="M21 6L22 7L21 6z"/>
<path style="fill:#787e88; stroke:none;" d="M12 7L13 8L12 7z"/>
<path style="fill:#ccd0d5; stroke:none;" d="M1 8L2 9L1 8z"/>
<path style="fill:#989ea8; stroke:none;" d="M10 8L11 9L10 8z"/>
<path style="fill:#ccd0d5; stroke:none;" d="M22 8L22 11L23 11L22 8z"/>
<path style="fill:#787e88; stroke:none;" d="M9 9L10 10L9 9z"/>
<path style="fill:#989ea8; stroke:none;" d="M7 10L8 11L7 10z"/>
<path style="fill:#787e88; stroke:none;" d="M6.33333 11.6667L6.66667 12.3333L6.33333 11.6667z"/>
<path style="fill:#989ea8; stroke:none;" d="M7 13L8 14L7 13z"/>
<path style="fill:#ccd0d5; stroke:none;" d="M22 13L22 16L23 16L22 13z"/>
<path style="fill:#787e88; stroke:none;" d="M9 14L10 15L9 14z"/>
<path style="fill:#ccd0d5; stroke:none;" d="M1 15L2 16L1 15z"/>
<path style="fill:#989ea8; stroke:none;" d="M10 15L11 16L10 15z"/>
<path style="fill:#787e88; stroke:none;" d="M12 16L13 17L12 16z"/>
<path style="fill:#ccd0d5; stroke:none;" d="M2 17L3 18L2 17z"/>
<path style="fill:#989ea8; stroke:none;" d="M13 17L14 18L13 17z"/>
<path style="fill:#ccd0d5; stroke:none;" d="M21 17L22 18L21 17M20 18L21 19L20 18M18 20L19 21L18 20M6 21L7 22L6 21M17 21L18 22L17 21M8.66667 22.3333L9.33333 22.6667L8.66667 22.3333M13 22L13 23L16 23L13 22z"/>
</svg>
